<svg width="40" height="40" viewBox="0 0 40 40" fill="none" xmlns="http://www.w3.org/2000/svg">
<g clip-path="url(#clip0_29_186)">
<path fill-rule="evenodd" clip-rule="evenodd" d="M25.2143 5.2857C27.279 5.2857 29.0452 5.80746 30.5129 6.85099C31.9805 7.89451 32.7143 9.15846 32.7143 10.6428V25.6428C32.7143 27.0937 32.014 28.3326 30.6133 29.3594C29.2126 30.3861 27.5078 30.9274 25.4989 30.9832L29.0648 34.3649C29.2433 34.5323 29.288 34.7277 29.1987 34.9509C29.1094 35.1741 28.942 35.2857 28.6965 35.2857H11.0179C10.7723 35.2857 10.6049 35.1741 10.5156 34.9509C10.4263 34.7277 10.471 34.5324 10.6495 34.3649L14.2154 30.9832C12.2065 30.9274 10.5017 30.3861 9.101 29.3594C7.70033 28.3326 7 27.0937 7 25.6428V10.6428C7 9.15846 7.73382 7.89451 9.20145 6.85099C10.6691 5.80746 12.4353 5.2857 14.5 5.2857H25.2143ZM17.5804 26.8482C18.2054 27.4732 18.9643 27.7857 19.8572 27.7857C20.75 27.7857 21.509 27.4732 22.134 26.8482C22.759 26.2232 23.0715 25.4643 23.0715 24.5714C23.0715 23.6785 22.759 22.9196 22.134 22.2946C21.509 21.6696 20.75 21.3571 19.8572 21.3571C18.9643 21.3571 18.2054 21.6696 17.5804 22.2946C16.9554 22.9196 16.6429 23.6785 16.6429 24.5714C16.6429 25.4643 16.9554 26.2232 17.5804 26.8482ZM29.5 18.1428V9.57141H10.2143V18.1428H29.5Z" fill="#101213"/>
</g>
<defs>
<clipPath id="clip0_29_186">
<rect width="40" height="40" fill="white"/>
</clipPath>
</defs>
</svg>
