<svg width="40" height="40" viewBox="0 0 40 40" fill="none" xmlns="http://www.w3.org/2000/svg">
<path d="M31 5.5C31 6.42826 30.6312 7.3185 29.9749 7.97487C29.3185 8.63125 28.4283 9 27.5 9C26.5717 9 25.6815 8.63125 25.0251 7.97487C24.3687 7.3185 24 6.42826 24 5.5C24 4.57174 24.3687 3.6815 25.0251 3.02513C25.6815 2.36875 26.5717 2 27.5 2C28.4283 2 29.3185 2.36875 29.9749 3.02513C30.6312 3.6815 31 4.57174 31 5.5Z" fill="black"/>
<path fill-rule="evenodd" clip-rule="evenodd" d="M27.5 7C27.8978 7 28.2794 6.84196 28.5607 6.56066C28.842 6.27936 29 5.89782 29 5.5C29 5.10218 28.842 4.72064 28.5607 4.43934C28.2794 4.15804 27.8978 4 27.5 4C27.1022 4 26.7206 4.15804 26.4393 4.43934C26.158 4.72064 26 5.10218 26 5.5C26 5.89782 26.158 6.27936 26.4393 6.56066C26.7206 6.84196 27.1022 7 27.5 7ZM27.5 9C27.9596 9 28.4148 8.90947 28.8394 8.73358C29.264 8.55769 29.6499 8.29988 29.9749 7.97487C30.2999 7.64987 30.5577 7.26403 30.7336 6.83939C30.9095 6.41475 31 5.95963 31 5.5C31 5.04037 30.9095 4.58525 30.7336 4.16061C30.5577 3.73597 30.2999 3.35013 29.9749 3.02513C29.6499 2.70012 29.264 2.44231 28.8394 2.26642C28.4148 2.09053 27.9596 2 27.5 2C26.5717 2 25.6815 2.36875 25.0251 3.02513C24.3687 3.6815 24 4.57174 24 5.5C24 6.42826 24.3687 7.3185 25.0251 7.97487C25.6815 8.63125 26.5717 9 27.5 9ZM15 12C14.4696 12 13.9609 12.2107 13.5858 12.5858C13.2107 12.9609 13 13.4696 13 14C13 14.5304 13.2107 15.0391 13.5858 15.4142C13.9609 15.7893 14.4696 16 15 16H22V36C22 36.5304 22.2107 37.0391 22.5858 37.4142C22.9609 37.7893 23.4696 38 24 38C24.5304 38 25.0391 37.7893 25.4142 37.4142C25.7893 37.0391 26 36.5304 26 36V27H29V36C29 36.5304 29.2107 37.0391 29.5858 37.4142C29.9609 37.7893 30.4696 38 31 38C31.5304 38 32.0391 37.7893 32.4142 37.4142C32.7893 37.0391 33 36.5304 33 36V23.917C34.4801 23.6623 35.8109 22.8619 36.7297 21.6739C37.6485 20.4859 38.0885 18.9967 37.9629 17.5001C37.8373 16.0035 37.1552 14.6084 36.0513 13.5902C34.9474 12.5719 33.5018 12.0045 32 12H15ZM35 18C35 17.4696 34.7893 16.9609 34.4142 16.5858C34.0391 16.2107 33.5304 16 33 16V20C33.5304 20 34.0391 19.7893 34.4142 19.4142C34.7893 19.0391 35 18.5304 35 18Z" fill="black"/>
<path fill-rule="evenodd" clip-rule="evenodd" d="M2 28C2 27.4696 2.21071 26.9609 2.58579 26.5858C2.96086 26.2107 3.46957 26 4 26H17C17.5304 26 18.0391 26.2107 18.4142 26.5858C18.7893 26.9609 19 27.4696 19 28V36C19 36.5304 18.7893 37.0391 18.4142 37.4142C18.0391 37.7893 17.5304 38 17 38H4C3.46957 38 2.96086 37.7893 2.58579 37.4142C2.21071 37.0391 2 36.5304 2 36V28ZM6 35V29H8V35H6ZM13 29V35H15V29H13ZM7 24C7 23.4696 7.21071 22.9609 7.58579 22.5858C7.96086 22.2107 8.46957 22 9 22H12C12.5304 22 13.0391 22.2107 13.4142 22.5858C13.7893 22.9609 14 23.4696 14 24V26H12V24H9V26H7V24Z" fill="black"/>
</svg>
