<svg width="40" height="40" viewBox="0 0 40 40" fill="none" xmlns="http://www.w3.org/2000/svg">
<g clip-path="url(#clip0_29_193)">
<path fill-rule="evenodd" clip-rule="evenodd" d="M13.7567 24.1429H8.50004C8.05361 24.1429 7.73274 23.9476 7.53743 23.557C7.34212 23.1663 7.37839 22.7925 7.64625 22.4353L10.7936 18.2333C10.0681 17.8873 9.30361 17.7143 8.50004 17.7143C7.02682 17.7143 5.76567 18.2389 4.71656 19.288C3.66745 20.3371 3.1429 21.5983 3.1429 23.0715C3.1429 24.5447 3.66745 25.8058 4.71656 26.8549C5.76567 27.9041 7.02682 28.4286 8.50004 28.4286C9.78352 28.4286 10.9163 28.024 11.8985 27.2149C12.8806 26.4057 13.5 25.3817 13.7567 24.1429L13.7567 24.1429ZM10.6429 22H13.7567C13.5559 21.0514 13.1373 20.2255 12.5012 19.5224L10.6429 22ZM18.6786 22L23.5 15.5715H15.4643L13.807 17.7813C14.9788 18.9308 15.682 20.3371 15.9163 22H18.6786ZM35.8549 26.8549C36.904 25.8058 37.4286 24.5447 37.4286 23.0715C37.4286 21.5983 36.904 20.3371 35.8549 19.288C34.8058 18.2389 33.5446 17.7143 32.0714 17.7143C31.4018 17.7143 30.7266 17.8483 30.0458 18.1161L32.9587 22.4688C33.1261 22.7255 33.1819 22.9989 33.1261 23.2891C33.0703 23.5793 32.9197 23.8025 32.6741 23.9588C32.5067 24.0815 32.3058 24.1429 32.0714 24.1429C31.6808 24.1429 31.3851 23.9811 31.1842 23.6574L28.2712 19.3047C27.2333 20.365 26.7143 21.6206 26.7143 23.0715C26.7143 24.5447 27.2388 25.8058 28.2879 26.855C29.3371 27.9041 30.5982 28.4286 32.0714 28.4286C33.5446 28.4286 34.8058 27.9041 35.8549 26.855L35.8549 26.8549ZM37.3616 17.7813C38.8348 19.2433 39.5714 21.0067 39.5714 23.0715C39.5714 25.1362 38.8376 26.9024 37.37 28.37C35.9024 29.8377 34.1362 30.5715 32.0714 30.5715C30.0067 30.5715 28.2405 29.8377 26.7729 28.37C25.3052 26.9024 24.5714 25.1362 24.5714 23.0715C24.5714 21.9889 24.7919 20.9649 25.2327 19.9995C25.6736 19.0341 26.2846 18.1998 27.0659 17.4967L25.9777 15.8561L20.0681 23.7076C19.8672 23.9978 19.5826 24.1429 19.2143 24.1429H15.9163C15.6596 25.9733 14.8281 27.5023 13.4219 28.7299C12.0156 29.9576 10.375 30.5715 8.5 30.5715C6.43527 30.5715 4.66908 29.8377 3.20145 28.37C1.73382 26.9024 1 25.1362 1 23.0715C1 21.0067 1.73382 19.2406 3.20145 17.7729C4.66908 16.3053 6.43527 15.5715 8.5 15.5715C9.77232 15.5715 10.9721 15.8784 12.0993 16.4922L14.3929 13.4286H10.6429C10.3527 13.4286 10.1016 13.3226 9.88951 13.1105C9.67746 12.8985 9.57143 12.6474 9.57143 12.3572C9.57143 12.067 9.67746 11.8159 9.88951 11.6038C10.1016 11.3918 10.3527 11.2858 10.6429 11.2858H17.0714V13.4286H24.3538L22.9308 11.2858H19.2143C18.9241 11.2858 18.673 11.1797 18.4609 10.9677C18.2489 10.7556 18.1429 10.5045 18.1429 10.2143C18.1429 9.92414 18.2489 9.67303 18.4609 9.46097C18.673 9.24892 18.9241 9.14289 19.2143 9.14289H23.5C23.8683 9.14289 24.1641 9.29914 24.3873 9.61164L28.8571 16.3081C29.8728 15.817 30.9442 15.5715 32.0714 15.5715C34.1362 15.5715 35.8996 16.3081 37.3616 17.7813L37.3616 17.7813Z" fill="#101213"/>
</g>
<defs>
<clipPath id="clip0_29_193">
<rect width="40" height="40" fill="white"/>
</clipPath>
</defs>
</svg>
