<svg width="40" height="40" viewBox="0 0 40 40" fill="none" xmlns="http://www.w3.org/2000/svg">
<path d="M10.0002 10H30.0002V16.6L20.0002 13.3333L10.0002 16.6M6.56683 31.6667H6.66683C9.3335 31.6667 11.6668 30.2 13.3335 28.3333C15.0002 30.2 17.3335 31.6667 20.0002 31.6667C22.6668 31.6667 25.0002 30.2 26.6668 28.3333C28.3335 30.2 30.6668 31.6667 33.3335 31.6667H33.4168L36.5835 20.5167C36.7168 20.1 36.6668 19.6333 36.4835 19.2333C36.2668 18.8333 35.9168 18.5333 35.4835 18.4L33.3335 17.7V10C33.3335 9.11594 32.9823 8.2681 32.3572 7.64297C31.7321 7.01785 30.8842 6.66666 30.0002 6.66666H25.0002V1.66666H15.0002V6.66666H10.0002C9.11611 6.66666 8.26826 7.01785 7.64314 7.64297C7.01802 8.2681 6.66683 9.11594 6.66683 10V17.7L4.51683 18.4C4.0835 18.5333 3.7335 18.8333 3.51683 19.2333C3.3335 19.6333 3.2835 20.1 3.41683 20.5167M33.3335 35C31.0168 35 28.7002 34.2167 26.6668 32.7833C22.6002 35.6333 17.4002 35.6333 13.3335 32.7833C11.3002 34.2167 8.9835 35 6.66683 35H3.3335V38.3333H6.66683C8.95016 38.3333 11.2335 37.75 13.3335 36.6667C17.5002 38.8333 22.5002 38.8333 26.6668 36.6667C28.7668 37.75 31.0335 38.3333 33.3335 38.3333H36.6668V35H33.3335Z" fill="black"/>
</svg>
