<svg width="40" height="40" viewBox="0 0 40 40" fill="none" xmlns="http://www.w3.org/2000/svg">
<g clip-path="url(#clip0_29_165)">
<path fill-rule="evenodd" clip-rule="evenodd" d="M12.7923 27.1663C13.2165 26.7422 13.4285 26.2344 13.4285 25.6429C13.4285 25.0513 13.2192 24.5463 12.8007 24.1278C12.3822 23.7093 11.8772 23.5 11.2857 23.5C10.6941 23.5 10.1891 23.7093 9.77058 24.1278C9.35205 24.5463 9.14279 25.0513 9.14279 25.6429C9.14279 26.2344 9.35205 26.7394 9.77058 27.1579C10.1891 27.5764 10.6941 27.7857 11.2857 27.7857C11.8772 27.7857 12.3794 27.5792 12.7923 27.1663H12.7923ZM29.9352 27.1663C30.3594 26.7422 30.5714 26.2344 30.5714 25.6429C30.5714 25.0513 30.3621 24.5463 29.9436 24.1278C29.5251 23.7093 29.0201 23.5 28.4286 23.5C27.837 23.5 27.332 23.7093 26.9135 24.1278C26.495 24.5463 26.2857 25.0513 26.2857 25.6429C26.2857 26.2344 26.495 26.7394 26.9135 27.1579C27.332 27.5764 27.837 27.7857 28.4286 27.7857C29.0201 27.7857 29.5223 27.5792 29.9352 27.1663ZM29.8013 19.0134L28.596 12.5848C28.5402 12.3281 28.4146 12.1189 28.2193 11.957C28.024 11.7952 27.798 11.7143 27.5413 11.7143H12.173C11.9163 11.7143 11.6903 11.7952 11.495 11.957C11.2996 12.1189 11.1741 12.3281 11.1183 12.5848L9.91293 19.0134C9.85712 19.3482 9.93525 19.644 10.1473 19.9007C10.3594 20.1574 10.6328 20.2857 10.9676 20.2857H28.7466C29.0814 20.2857 29.3549 20.1574 29.5669 19.9007C29.779 19.644 29.8571 19.3482 29.8013 19.0134H29.8013ZM25.7835 9.33705C25.9397 9.1808 26.0178 8.99107 26.0178 8.76786C26.0178 8.54464 25.9397 8.35491 25.7835 8.19866C25.6272 8.04241 25.4375 7.96429 25.2143 7.96429H14.5C14.2768 7.96429 14.087 8.04241 13.9308 8.19866C13.7745 8.35491 13.6964 8.54464 13.6964 8.76786C13.6964 8.99107 13.7745 9.1808 13.9308 9.33705C14.087 9.4933 14.2768 9.57143 14.5 9.57143H25.2143C25.4375 9.57143 25.6272 9.4933 25.7835 9.33705ZM32.7143 20.9052V31.0001H30.5714V33.1429C30.5714 33.7344 30.3621 34.2395 29.9436 34.658C29.5251 35.0765 29.0201 35.2858 28.4285 35.2858C27.837 35.2858 27.332 35.0765 26.9135 34.658C26.4949 34.2395 26.2857 33.7344 26.2857 33.1429V31.0001H13.4286V33.1429C13.4286 33.7344 13.2193 34.2395 12.8008 34.658C12.3823 35.0765 11.8772 35.2858 11.2857 35.2858C10.6942 35.2858 10.1892 35.0765 9.77065 34.658C9.35212 34.2395 9.14286 33.7344 9.14286 33.1429V31.0001H7V20.9052C7 19.6552 7.13951 18.4107 7.41853 17.1719L9.14286 9.57144C9.2433 8.70091 9.78739 7.9364 10.7751 7.27791C11.7628 6.61943 13.0463 6.12278 14.6256 5.78795C16.2048 5.45313 17.9487 5.28572 19.8571 5.28572C21.7656 5.28572 23.5095 5.45313 25.0887 5.78795C26.668 6.12277 27.9514 6.61943 28.9392 7.27791C29.9269 7.93639 30.471 8.7009 30.5714 9.57144L32.3292 17.1719C32.5859 18.3103 32.7143 19.5547 32.7143 20.9052H32.7143Z" fill="#101213"/>
</g>
<defs>
<clipPath id="clip0_29_165">
<rect width="40" height="40" fill="white"/>
</clipPath>
</defs>
</svg>
