<svg width="40" height="40" viewBox="0 0 40 40" fill="none" xmlns="http://www.w3.org/2000/svg">
<g clip-path="url(#clip0_20_86)">
<path fill-rule="evenodd" clip-rule="evenodd" d="M33.5358 20.2857C34.5737 20.2857 35.4582 20.6512 36.1892 21.3822C36.9203 22.1133 37.2858 22.9977 37.2858 24.0357V30.4643C37.2858 30.6205 37.2355 30.7489 37.1351 30.8493C37.0347 30.9498 36.9063 31 36.7501 31H35.1429V32.0714C35.1429 32.9643 34.8304 33.7232 34.2054 34.3482C33.5804 34.9732 32.8215 35.2857 31.9286 35.2857C31.0358 35.2857 30.2768 34.9732 29.6518 34.3482C29.0268 33.7232 28.7143 32.9643 28.7143 32.0714V31H11.5714V32.0714C11.5714 32.9643 11.2589 33.7232 10.6339 34.3482C10.0089 34.9732 9.25 35.2857 8.35714 35.2857C7.46428 35.2857 6.70535 34.9732 6.08035 34.3482C5.45535 33.7232 5.14285 32.9643 5.14285 32.0714V31H3.53571C3.37946 31 3.25112 30.9498 3.15067 30.8493C3.05022 30.7489 3 30.6205 3 30.4643V24.0357C3 22.9977 3.36551 22.1133 4.09654 21.3822C4.82757 20.6512 5.71205 20.2857 6.75 20.2857H7.21875L8.97656 13.2712C9.23326 12.2221 9.81361 11.3432 10.7176 10.6345C11.6216 9.92576 12.6205 9.57141 13.7143 9.57141H15.8571V5.82141C15.8571 5.66516 15.9074 5.53681 16.0078 5.43636C16.1083 5.33591 16.2366 5.28569 16.3929 5.28569H23.8929C24.0491 5.28569 24.1775 5.33591 24.2779 5.43636C24.3783 5.53681 24.4286 5.66516 24.4286 5.82141V9.57141H26.5714C27.6652 9.57141 28.6641 9.92576 29.5681 10.6345C30.4721 11.3432 31.0525 12.2221 31.3092 13.2712L33.067 20.2857H33.5358ZM6.46547 27.5346C6.99002 28.0591 7.6206 28.3214 8.35721 28.3214C9.09382 28.3214 9.7244 28.0591 10.249 27.5346C10.7735 27.01 11.0358 26.3794 11.0358 25.6428C11.0358 24.9062 10.7735 24.2757 10.249 23.7511C9.7244 23.2265 9.09382 22.9643 8.35721 22.9643C7.6206 22.9643 6.99002 23.2265 6.46547 23.7511C5.94092 24.2757 5.67864 24.9062 5.67864 25.6428C5.67864 26.3794 5.94092 27.01 6.46547 27.5346ZM11.6385 20.2857H28.6474L27.1574 14.3091C27.1351 14.2198 27.057 14.1222 26.923 14.0162C26.7891 13.9101 26.6719 13.8571 26.5715 13.8571H13.7144C13.6139 13.8571 13.4967 13.9101 13.3628 14.0162C13.2289 14.1222 13.1507 14.2198 13.1284 14.3091L11.6385 20.2857ZM30.0369 27.5346C30.5614 28.0591 31.192 28.3214 31.9286 28.3214C32.6652 28.3214 33.2958 28.0591 33.8203 27.5346C34.3449 27.01 34.6072 26.3794 34.6072 25.6428C34.6072 24.9062 34.3449 24.2757 33.8203 23.7511C33.2958 23.2265 32.6652 22.9643 31.9286 22.9643C31.192 22.9643 30.5614 23.2265 30.0369 23.7511C29.5123 24.2757 29.25 24.9062 29.25 25.6428C29.25 26.3794 29.5123 27.01 30.0369 27.5346Z" fill="#101213"/>
</g>
<defs>
<clipPath id="clip0_20_86">
<rect width="40" height="40" fill="white"/>
</clipPath>
</defs>
</svg>
